<svg xmlns="http://www.w3.org/2000/svg" viewBox="0 0 260.43 125.7"><defs><style>.cls-1{fill:#1d1d1b;}</style></defs><g id="Calque_2" data-name="Calque 2"><g id="Calque_1-2" data-name="Calque 1"><path class="cls-1" d="M260.43,0c-6.12,0-9,8.52-16.17,8.52s-9.9-5.33-14.76-5.21c-4.74.3-4.41,10.61-12.6,5.39-1.8-1.15-7.5.12-7.81,9.54a25.74,25.74,0,0,0,1.2,8.26h0c1.12,4,1.84,5.17,1.84,6.72a4.84,4.84,0,0,1-9.67,0c0-1.55.72-2.76,1.84-6.72h0a28.84,28.84,0,0,0,1.2-8.26c0-.64,0-1.23-.07-1.79a33.54,33.54,0,0,0-1.08-5.52c-1.37-5.5-7.15-6.61-12.85-4.39-5,2-11.46,10-19.86,10S155.2,3,147.33,2.86,132,9.24,130.42,15.1a115.51,115.51,0,0,0-4.27,30.69c0,10.86,1.55,27.35,4.43,37.27h0c4.14,14.62,6.8,19.1,6.8,24.79a17.86,17.86,0,1,1-35.71,0c0-5.69,2.66-10.17,6.8-24.79h0c1.87-6.44,2.45-15.73,3.1-24.37.35-4.67.76-12.35.85-16.15.35-14.94-5.13-20.89-8.64-24.48-7.2-7.38-13.94-7.32-17.64-7.38S74.34,15.54,73.51,26.89a64.4,64.4,0,0,0,2,18.26h0c1.94,6.86,3.19,9,3.19,11.64a8.38,8.38,0,1,1-16.76,0c0-2.67,1.25-4.78,3.19-11.64h0C66.54,40.49,67.27,29,67.27,23.9A29.29,29.29,0,0,0,63.9,9.69C60.66,3.93,53.28,1.32,47.7,2.4S37.08,6.72,24.84,6.72,9.55,0,0,0Z"/></g></g></svg>